<svg width="50.000000" height="50.000000" viewBox="0 0 50 50" fill="none" xmlns="http://www.w3.org/2000/svg" xmlns:xlink="http://www.w3.org/1999/xlink">
	<desc>
			Created with Pixso.
	</desc>
	<defs/>
	<g opacity="0.000000">
		<rect id="Прямоугольник 1" width="50.000000" height="50.000000" fill="#C4C4C4" fill-opacity="1.000000"/>
	</g>
	<path id="path" d="M39.91 24.63C41.52 22.76 42.49 20.36 42.49 17.74C42.49 11.8 37.52 7 31.38 7C26.86 7 22.98 9.46 21.24 13.2C19.5 9.46 15.63 7 11.11 7C4.97 7 0 11.8 0 17.74C0 20.51 1.09 23.02 2.87 24.93C12.19 35.45 21.24 41.75 21.24 41.75C21.24 41.75 30.67 35.56 39.91 24.63Z" fill="#DD2C00" fill-opacity="1.000000" fill-rule="nonzero"/>
	<path id="path" d="M38.23 26.56C36.57 26.62 34.53 25.97 31.74 24.2C31.75 21.43 30.11 18.78 27.33 17.57C23.55 15.92 19.12 17.55 17.39 21.19C16.11 23.91 17.09 26.39 17.09 26.39C19.09 33 21.77 38.22 23.03 40.49C25.93 38.36 31.98 33.58 38.23 26.56Z" fill="#AA280E" fill-opacity="1.000000" fill-rule="nonzero"/>
	<path id="path" d="M45.75 37.39C47.28 36.68 48.57 35.46 49.32 33.85C51.04 30.2 49.36 25.91 45.58 24.26C42.79 23.04 39.66 23.6 37.51 25.44C37.52 22.67 35.88 20.02 33.1 18.81C29.32 17.16 24.89 18.79 23.16 22.43C21.87 25.15 22.85 27.63 22.85 27.63C25.56 36.6 29.53 43 29.53 43C29.53 43 36.91 41.63 45.75 37.39Z" fill="#FF6E40" fill-opacity="1.000000" fill-rule="nonzero"/>
</svg>
