<svg width="50.000000" height="50.000000" viewBox="0 0 50 50" fill="none" xmlns="http://www.w3.org/2000/svg" xmlns:xlink="http://www.w3.org/1999/xlink">
	<defs/>
	<g opacity="0.000000">
		<rect id="Прямоугольник 1" width="50.000000" height="50.000000" fill="#C4C4C4" fill-opacity="1.000000"/>
	</g>
	<path id="path" d="M28.71 14.69C27.65 13.45 26.39 12.38 25 11.51C22.47 9.92 19.48 9 16.27 9C7.3 9 0 16.17 0 25C0 33.82 7.3 41 16.27 41C19.48 41 22.47 40.07 25 38.48C23.6 37.61 22.34 36.54 21.28 35.3C19.76 36.01 18.07 36.42 16.27 36.42C9.86 36.42 4.65 31.3 4.65 25C4.65 18.69 9.86 13.57 16.27 13.57C18.07 13.57 19.76 13.98 21.28 14.69C22.7 15.37 23.96 16.31 25 17.46C26.8 19.48 27.9 22.11 27.9 25C27.9 27.88 26.8 30.52 25 32.53C26.03 33.68 27.29 34.62 28.71 35.3C31.1 32.51 32.55 28.92 32.55 25C32.55 21.07 31.1 17.48 28.71 14.69Z" fill="#FFC107" fill-opacity="1.000000" fill-rule="nonzero"/>
	<path id="path" d="M33.72 9C30.51 9 27.52 9.92 25 11.51C26.39 12.38 27.65 13.45 28.71 14.69C30.23 13.98 31.92 13.57 33.72 13.57C40.13 13.57 45.34 18.69 45.34 25C45.34 31.3 40.13 36.42 33.72 36.42C31.92 36.42 30.23 36.01 28.71 35.3C27.29 34.62 26.03 33.68 25 32.53C23.19 30.52 22.09 27.88 22.09 25C22.09 22.11 23.19 19.48 25 17.46C23.96 16.31 22.7 15.37 21.28 14.69C18.89 17.48 17.44 21.07 17.44 25C17.44 28.92 18.89 32.51 21.28 35.3C22.34 36.54 23.6 37.61 25 38.48C27.52 40.07 30.51 41 33.72 41C42.69 41 50 33.82 50 25C50 16.17 42.69 9 33.72 9Z" fill="#FFC107" fill-opacity="1.000000" fill-rule="nonzero"/>
	<path id="path" d="M32.55 25C32.55 28.92 31.1 32.51 28.71 35.3C27.29 34.62 26.03 33.68 25 32.53C25.07 32.45 25.13 32.36 25.2 32.28C28.06 29.77 29.86 26.13 29.86 22.07C29.86 17.53 27.61 13.51 24.15 11.01C24.44 11.17 24.72 11.33 25 11.51C26.39 12.38 27.65 13.45 28.71 14.69C31.1 17.48 32.55 21.07 32.55 25ZM21.28 35.3C22.34 36.54 23.6 37.61 25 38.48C25.27 38.66 25.55 38.82 25.84 38.98C22.38 36.48 20.13 32.46 20.13 27.92C20.13 23.86 21.94 20.22 24.79 17.71C24.86 17.63 24.92 17.54 25 17.46C23.96 16.31 22.7 15.37 21.28 14.69C18.89 17.48 17.44 21.07 17.44 25C17.44 28.92 18.89 32.51 21.28 35.3Z" fill="#F29E25" fill-opacity="1.000000" fill-rule="nonzero"/>
	<path id="path" d="M19.9 16.58C20.03 16.63 20.14 16.7 20.27 16.76C21.41 17.29 22.41 18.04 23.25 18.97C23.3 19.03 23.35 19.09 23.39 19.15C23.83 18.64 24.29 18.15 24.79 17.71C24.86 17.63 24.92 17.54 25 17.46C23.96 16.31 22.7 15.37 21.28 14.69C21.02 15 20.78 15.31 20.54 15.63C20.32 15.94 20.1 16.26 19.9 16.58ZM30.1 33.39C29.98 33.34 29.85 33.29 29.72 33.23C28.58 32.7 27.58 31.95 26.74 31.02C26.69 30.96 26.64 30.9 26.6 30.84C26.16 31.35 25.7 31.84 25.2 32.28C25.13 32.36 25.07 32.45 25 32.53C26.03 33.68 27.29 34.63 28.71 35.3C28.97 34.99 29.22 34.68 29.45 34.36C29.68 34.04 29.9 33.72 30.1 33.39Z" fill="#DD851D" fill-opacity="1.000000" fill-rule="nonzero"/>
</svg>
